<svg width="48" height="48" viewBox="0 0 48 48" fill="none" xmlns="http://www.w3.org/2000/svg">
<circle cx="24" cy="24" r="24" fill="#0029F7"/>
<path d="M27.3333 32.3333C27.7949 32.3333 28.188 32.1709 28.5127 31.846C28.8376 31.5213 29 31.1282 29 30.6667C29 30.2051 28.8376 29.812 28.5127 29.4873C28.188 29.1625 27.7949 29 27.3333 29C26.8718 29 26.4787 29.1625 26.154 29.4873C25.8291 29.812 25.6667 30.2051 25.6667 30.6667C25.6667 31.1282 25.8291 31.5213 26.154 31.846C26.4787 32.1709 26.8718 32.3333 27.3333 32.3333ZM20.6 32.1257L28.7923 23.9333L27.4 22.541L19.2077 30.7333L20.6 32.1257ZM20.6667 25.6667C21.1282 25.6667 21.5213 25.5042 21.846 25.1793C22.1709 24.8547 22.3333 24.4616 22.3333 24C22.3333 23.5385 22.1709 23.1453 21.846 22.8207C21.5213 22.4958 21.1282 22.3333 20.6667 22.3333C20.2051 22.3333 19.812 22.4958 19.4873 22.8207C19.1624 23.1453 19 23.5385 19 24C19 24.4616 19.1624 24.8547 19.4873 25.1793C19.812 25.5042 20.2051 25.6667 20.6667 25.6667ZM16.4103 36.6667C15.7368 36.6667 15.1667 36.4333 14.7 35.9667C14.2333 35.5 14 34.9299 14 34.2563V13.7437C14 13.0701 14.2333 12.5 14.7 12.0333C15.1667 11.5667 15.7368 11.3333 16.4103 11.3333H27L34 18.3333V34.2563C34 34.9299 33.7667 35.5 33.3 35.9667C32.8333 36.4333 32.2632 36.6667 31.5897 36.6667H16.4103ZM26 19.3333V13.3333H16.4103C16.3077 13.3333 16.2137 13.3761 16.1283 13.4617C16.0428 13.547 16 13.641 16 13.7437V34.2563C16 34.359 16.0428 34.453 16.1283 34.5383C16.2137 34.6239 16.3077 34.6667 16.4103 34.6667H31.5897C31.6923 34.6667 31.7863 34.6239 31.8717 34.5383C31.9572 34.453 32 34.359 32 34.2563V19.3333H26Z" fill="#8EF69D"/>
</svg>
