<svg width="48" height="48" viewBox="0 0 48 48" fill="none" xmlns="http://www.w3.org/2000/svg">
<circle cx="24" cy="24" r="24" fill="#0029F7"/>
<path d="M23.0078 35.6668V32.877C21.8471 32.6702 20.8475 32.2168 20.0091 31.5168C19.1706 30.8168 18.5514 29.8377 18.1514 28.5796L20.0026 27.8104C20.3616 28.8429 20.8731 29.6326 21.5372 30.1796C22.2013 30.7267 23.0881 31.0002 24.1975 31.0002C25.1599 31.0002 26.009 30.7711 26.7449 30.313C27.4808 29.8549 27.8488 29.1284 27.8488 28.1335C27.8488 27.2702 27.5723 26.5809 27.0193 26.0655C26.4663 25.5501 25.3223 25.0121 23.5873 24.4514C21.7702 23.877 20.5082 23.2053 19.8014 22.436C19.0945 21.6668 18.7411 20.6993 18.7411 19.5335C18.7411 18.1916 19.212 17.1356 20.1539 16.3655C21.0958 15.5954 22.0471 15.1677 23.0078 15.0822V12.3335H25.0077V15.0822C26.0248 15.2172 26.8795 15.548 27.5718 16.0745C28.2641 16.601 28.8026 17.2856 29.1872 18.1283L27.3616 18.9642C27.0693 18.3215 26.6616 17.8223 26.1385 17.4668C25.6154 17.1112 24.9274 16.9334 24.0744 16.9334C23.071 16.9334 22.2646 17.1779 21.6552 17.6668C21.0458 18.1557 20.7411 18.7779 20.7411 19.5335C20.7411 20.3095 21.053 20.93 21.677 21.395C22.3009 21.86 23.4607 22.3472 25.1564 22.8566C26.7325 23.3352 27.9086 24.0172 28.6847 24.9027C29.4607 25.7882 29.8488 26.8514 29.8488 28.0924C29.8488 29.5505 29.38 30.6822 28.4423 31.4873C27.5047 32.2924 26.3599 32.7694 25.0077 32.9181V35.6668H23.0078Z" fill="#8EF69D"/>
</svg>
