<svg width="48" height="48" viewBox="0 0 48 48" fill="none" xmlns="http://www.w3.org/2000/svg">
<circle cx="24" cy="24" r="24" fill="#0029F7"/>
<path d="M24.0024 36.6667C22.2504 36.6667 20.6036 36.3342 19.062 35.6693C17.5205 35.0045 16.1796 34.1021 15.0394 32.9623C13.8992 31.8226 12.9964 30.4822 12.331 28.9413C11.6659 27.4005 11.3334 25.7541 11.3334 24.0023C11.3334 22.2503 11.6659 20.6036 12.331 19.062C12.9959 17.5205 13.8984 16.1796 15.0384 15.0393C16.1784 13.8991 17.5189 12.9963 19.06 12.331C20.6012 11.6659 22.2478 11.3333 24 11.3333C25.4045 11.3333 26.7334 11.5445 27.9867 11.9667C29.24 12.3889 30.3898 12.9778 31.436 13.7333L29.9897 15.213C29.1282 14.6197 28.1949 14.1581 27.19 13.8283C26.1852 13.4983 25.1218 13.3333 24 13.3333C21.0445 13.3333 18.5278 14.3722 16.45 16.45C14.3723 18.5278 13.3334 21.0445 13.3334 24C13.3334 26.9556 14.3723 29.4722 16.45 31.55C18.5278 33.6278 21.0445 34.6667 24 34.6667C26.9556 34.6667 29.4723 33.6278 31.55 31.55C33.6278 29.4722 34.6667 26.9556 34.6667 24C34.6667 23.5316 34.6359 23.0683 34.5744 22.6103C34.5128 22.1523 34.4205 21.707 34.2974 21.2743L35.9127 19.6463C36.1572 20.3317 36.3439 21.0368 36.473 21.7617C36.6022 22.4863 36.6667 23.2325 36.6667 24C36.6667 25.7522 36.3343 27.3989 35.6694 28.94C35.0045 30.4811 34.1022 31.8217 32.9624 32.9617C31.8226 34.1017 30.4823 35.0041 28.9414 35.669C27.4005 36.3341 25.7542 36.6667 24.0024 36.6667ZM22.1077 29.6717L16.9027 24.4667L18.3077 23.0617L22.1077 26.8617L35.2617 13.6873L36.6667 15.0923L22.1077 29.6717Z" fill="#8EF69D"/>
</svg>
