<svg width="48" height="48" viewBox="0 0 48 48" fill="none" xmlns="http://www.w3.org/2000/svg">
<circle cx="24" cy="24" r="24" fill="#0029F7"/>
<path d="M27.5898 32.0002C26.7334 32.0002 26.0065 31.7014 25.409 31.104C24.8116 30.5066 24.5129 29.7797 24.5129 28.9233C24.5129 28.0669 24.8116 27.3399 25.409 26.7425C26.0065 26.1451 26.7334 25.8464 27.5898 25.8464C28.4462 25.8464 29.1731 26.1451 29.7706 26.7425C30.368 27.3399 30.6667 28.0669 30.6667 28.9233C30.6667 29.7797 30.368 30.5066 29.7706 31.104C29.1731 31.7014 28.4462 32.0002 27.5898 32.0002ZM15.077 36.6668C14.4035 36.6668 13.8334 36.4335 13.3667 35.9668C12.9001 35.5001 12.6667 34.93 12.6667 34.2565V16.4105C12.6667 15.7369 12.9001 15.1669 13.3667 14.7002C13.8334 14.2335 14.4035 14.0002 15.077 14.0002H16.9232V11.1797H18.9744V14.0002H29.0769V11.1797H31.0769V14.0002H32.9231C33.5966 14.0002 34.1667 14.2335 34.6334 14.7002C35.1 15.1669 35.3334 15.7369 35.3334 16.4105V34.2565C35.3334 34.93 35.1 35.5001 34.6334 35.9668C34.1667 36.4335 33.5966 36.6668 32.9231 36.6668H15.077ZM15.077 34.6668H32.9231C33.0257 34.6668 33.1197 34.6241 33.2052 34.5386C33.2906 34.4531 33.3334 34.3591 33.3334 34.2565V21.7438H14.6667V34.2565C14.6667 34.3591 14.7094 34.4531 14.7949 34.5386C14.8804 34.6241 14.9744 34.6668 15.077 34.6668ZM14.6667 19.7438H33.3334V16.4105C33.3334 16.3079 33.2906 16.2138 33.2052 16.1284C33.1197 16.0429 33.0257 16.0002 32.9231 16.0002H15.077C14.9744 16.0002 14.8804 16.0429 14.7949 16.1284C14.7094 16.2138 14.6667 16.3079 14.6667 16.4105V19.7438Z" fill="#8EF69D"/>
</svg>
