<svg width="48" height="48" viewBox="0 0 48 48" fill="none" xmlns="http://www.w3.org/2000/svg">
<circle cx="24" cy="24" r="24" fill="#0029F7"/>
<path d="M17.6667 25H30.3334V23H17.6667V25ZM24.0024 36.6667C22.2504 36.6667 20.6036 36.3342 19.062 35.6693C17.5205 35.0045 16.1796 34.1021 15.0394 32.9623C13.8992 31.8226 12.9964 30.4822 12.331 28.9413C11.6659 27.4005 11.3334 25.7541 11.3334 24.0023C11.3334 22.2503 11.6658 20.6036 12.3307 19.062C12.9956 17.5205 13.8979 16.1796 15.0377 15.0393C16.1775 13.8991 17.5178 12.9963 19.0587 12.331C20.5996 11.6659 22.2459 11.3333 23.9977 11.3333C25.7497 11.3333 27.3965 11.6658 28.938 12.3307C30.4796 12.9956 31.8205 13.8979 32.9607 15.0377C34.1009 16.1775 35.0037 17.5178 35.669 19.0587C36.3342 20.5996 36.6667 22.2459 36.6667 23.9977C36.6667 25.7497 36.3343 27.3965 35.6694 28.938C35.0045 30.4796 34.1022 31.8205 32.9624 32.9607C31.8226 34.1009 30.4823 35.0037 28.9414 35.669C27.4005 36.3341 25.7542 36.6667 24.0024 36.6667ZM24 34.6667C26.9778 34.6667 29.5 33.6333 31.5667 31.5667C33.6334 29.5 34.6667 26.9778 34.6667 24C34.6667 21.0222 33.6334 18.5 31.5667 16.4333C29.5 14.3667 26.9778 13.3333 24 13.3333C21.0223 13.3333 18.5 14.3667 16.4334 16.4333C14.3667 18.5 13.3334 21.0222 13.3334 24C13.3334 26.9778 14.3667 29.5 16.4334 31.5667C18.5 33.6333 21.0223 34.6667 24 34.6667Z" fill="#8EF69D"/>
</svg>
