<svg width="48" height="48" viewBox="0 0 48 48" fill="none" xmlns="http://www.w3.org/2000/svg">
<circle cx="24" cy="24" r="24" fill="#0029F7"/>
<path d="M20.2565 11.6664V9.6665H27.7436V11.6664H20.2565ZM23.0001 26.41H25V18.9229H23.0001V26.41ZM24 36.6664C22.4411 36.6664 20.9744 36.369 19.6001 35.7741C18.2257 35.1792 17.024 34.3673 15.9949 33.3382C14.9659 32.3092 14.1539 31.1075 13.5591 29.7331C12.9642 28.3588 12.6667 26.8921 12.6667 25.3331C12.6667 23.7742 12.9642 22.3075 13.5591 20.9332C14.1539 19.5588 14.9659 18.3571 15.9949 17.328C17.024 16.299 18.2257 15.487 19.6001 14.8922C20.9744 14.2973 22.4411 13.9998 24 13.9998C25.3351 13.9998 26.621 14.2263 27.8577 14.6793C29.0945 15.1323 30.2428 15.7811 31.3026 16.6255L32.9641 14.964L34.3692 16.3691L32.7077 18.0306C33.5521 19.0904 34.2008 20.2387 34.6539 21.4754C35.1068 22.7122 35.3334 23.9981 35.3334 25.3331C35.3334 26.8921 35.0359 28.3588 34.441 29.7331C33.8461 31.1075 33.0342 32.3092 32.0051 33.3382C30.9761 34.3673 29.7744 35.1792 28.4 35.7741C27.0257 36.369 25.559 36.6664 24 36.6664ZM24 34.6665C26.5778 34.6665 28.7778 33.7554 30.6 31.9331C32.4223 30.1109 33.3334 27.9109 33.3334 25.3331C33.3334 22.7554 32.4223 20.5554 30.6 18.7331C28.7778 16.9109 26.5778 15.9998 24 15.9998C21.4223 15.9998 19.2223 16.9109 17.4 18.7331C15.5778 20.5554 14.6667 22.7554 14.6667 25.3331C14.6667 27.9109 15.5778 30.1109 17.4 31.9331C19.2223 33.7554 21.4223 34.6665 24 34.6665Z" fill="#8EF69D"/>
</svg>
