<svg width="48" height="48" viewBox="0 0 48 48" fill="none" xmlns="http://www.w3.org/2000/svg">
<circle cx="24" cy="24" r="24" fill="#0029F7"/>
<path d="M17.3316 25.6667C17.7943 25.6667 18.188 25.5048 18.5126 25.181C18.8375 24.8572 19 24.4641 19 24.0017C19 23.539 18.8381 23.1453 18.5143 22.8207C18.1905 22.4958 17.7974 22.3333 17.335 22.3333C16.8723 22.3333 16.4786 22.4952 16.154 22.819C15.8291 23.1428 15.6666 23.5359 15.6666 23.9983C15.6666 24.461 15.8285 24.8547 16.1523 25.1793C16.4761 25.5042 16.8692 25.6667 17.3316 25.6667ZM23.9983 25.6667C24.461 25.6667 24.8546 25.5048 25.1793 25.181C25.5042 24.8572 25.6666 24.4641 25.6666 24.0017C25.6666 23.539 25.5048 23.1453 25.181 22.8207C24.8572 22.4958 24.4641 22.3333 24.0016 22.3333C23.539 22.3333 23.1453 22.4952 22.8206 22.819C22.4958 23.1428 22.3333 23.5359 22.3333 23.9983C22.3333 24.461 22.4952 24.8547 22.819 25.1793C23.1428 25.5042 23.5359 25.6667 23.9983 25.6667ZM30.665 25.6667C31.1276 25.6667 31.5213 25.5048 31.846 25.181C32.1709 24.8572 32.3333 24.4641 32.3333 24.0017C32.3333 23.539 32.1714 23.1453 31.8476 22.8207C31.5239 22.4958 31.1308 22.3333 30.6683 22.3333C30.2056 22.3333 29.812 22.4952 29.4873 22.819C29.1624 23.1428 29 23.5359 29 23.9983C29 24.461 29.1619 24.8547 29.4856 25.1793C29.8094 25.5042 30.2025 25.6667 30.665 25.6667ZM24.0023 36.6667C22.2503 36.6667 20.6035 36.3342 19.062 35.6693C17.5204 35.0045 16.1795 34.1021 15.0393 32.9623C13.8991 31.8226 12.9963 30.4822 12.331 28.9413C11.6659 27.4005 11.3333 25.7541 11.3333 24.0023C11.3333 22.2503 11.6658 20.6036 12.3306 19.062C12.9955 17.5205 13.8979 16.1796 15.0376 15.0393C16.1774 13.8991 17.5178 12.9963 19.0586 12.331C20.5995 11.6659 22.2459 11.3333 23.9976 11.3333C25.7496 11.3333 27.3964 11.6658 28.938 12.3307C30.4795 12.9956 31.8204 13.8979 32.9606 15.0377C34.1009 16.1775 35.0036 17.5178 35.669 19.0587C36.3341 20.5996 36.6666 22.2459 36.6666 23.9977C36.6666 25.7497 36.3342 27.3965 35.6693 28.938C35.0044 30.4796 34.1021 31.8205 32.9623 32.9607C31.8225 34.1009 30.4822 35.0037 28.9413 35.669C27.4004 36.3341 25.7541 36.6667 24.0023 36.6667ZM24 34.6667C26.9778 34.6667 29.5 33.6333 31.5666 31.5667C33.6333 29.5 34.6666 26.9778 34.6666 24C34.6666 21.0222 33.6333 18.5 31.5666 16.4333C29.5 14.3667 26.9778 13.3333 24 13.3333C21.0222 13.3333 18.5 14.3667 16.4333 16.4333C14.3666 18.5 13.3333 21.0222 13.3333 24C13.3333 26.9778 14.3666 29.5 16.4333 31.5667C18.5 33.6333 21.0222 34.6667 24 34.6667Z" fill="#8EF69D"/>
</svg>
