<svg width="48" height="48" viewBox="0 0 48 48" fill="none" xmlns="http://www.w3.org/2000/svg">
<circle cx="24" cy="24" r="24" fill="#0029F7"/>
<path d="M24 30.3078C24.3051 30.3078 24.5609 30.2046 24.7673 29.9982C24.9737 29.7918 25.0769 29.536 25.0769 29.2309C25.0769 28.9258 24.9737 28.67 24.7673 28.4636C24.5609 28.2572 24.3051 28.154 24 28.154C23.6949 28.154 23.4391 28.2572 23.2327 28.4636C23.0263 28.67 22.9231 28.9258 22.9231 29.2309C22.9231 29.536 23.0263 29.7918 23.2327 29.9982C23.4391 30.2046 23.6949 30.3078 24 30.3078ZM23 25.436H25V17.436H23V25.436ZM24.0022 36.6668C22.2503 36.6668 20.6036 36.3343 19.0621 35.6694C17.5206 35.0045 16.1797 34.1022 15.0394 32.9624C13.8991 31.8226 12.9963 30.4823 12.3311 28.9415C11.666 27.4006 11.3334 25.7543 11.3334 24.0024C11.3334 22.2505 11.6658 20.6037 12.3307 19.0622C12.9956 17.5207 13.8979 16.1798 15.0377 15.0395C16.1775 13.8992 17.5178 12.9964 19.0587 12.3313C20.5995 11.6661 22.2459 11.3335 23.9978 11.3335C25.7497 11.3335 27.3964 11.6659 28.9379 12.3308C30.4794 12.9957 31.8204 13.8981 32.9606 15.0378C34.101 16.1776 35.0037 17.518 35.6689 19.0588C36.3341 20.5996 36.6666 22.246 36.6666 23.9979C36.6666 25.7498 36.3342 27.3965 35.6693 28.938C35.0044 30.4796 34.1021 31.8205 32.9623 32.9608C31.8225 34.1011 30.4822 35.0038 28.9413 35.669C27.4005 36.3342 25.7542 36.6668 24.0022 36.6668ZM24 34.6668C26.9778 34.6668 29.5 33.6335 31.5667 31.5668C33.6333 29.5001 34.6667 26.9779 34.6667 24.0001C34.6667 21.0224 33.6333 18.5001 31.5667 16.4335C29.5 14.3668 26.9778 13.3335 24 13.3335C21.0222 13.3335 18.5 14.3668 16.4333 16.4335C14.3667 18.5001 13.3333 21.0224 13.3333 24.0001C13.3333 26.9779 14.3667 29.5001 16.4333 31.5668C18.5 33.6335 21.0222 34.6668 24 34.6668Z" fill="#8EF69D"/>
</svg>
