<svg width="48" height="48" viewBox="0 0 48 48" fill="none" xmlns="http://www.w3.org/2000/svg">
<circle cx="24" cy="24" r="24" fill="#0029F7"/>
<path d="M16 36.6667C15.0684 36.6667 14.28 36.344 13.6347 35.6987C12.9894 35.0534 12.6667 34.267 12.6667 33.3394V30.0001H16.6667V11.5898L18.5129 13.1796L20.3847 11.5898L22.2565 13.1796L24.1282 11.5898L26 13.1796L27.8718 11.5898L29.7436 13.1796L31.6154 11.5898L33.4872 13.1796L35.3334 11.5898V33.3334C35.3334 34.265 35.0107 35.0534 34.3654 35.6987C33.7201 36.344 32.9317 36.6667 32 36.6667H16ZM32 34.6667C32.3778 34.6667 32.6945 34.5389 32.9501 34.2834C33.2056 34.0278 33.3334 33.7112 33.3334 33.3334V14.6667H18.6667V30.0001H30.6667V33.3334C30.6667 33.7112 30.7945 34.0278 31.0501 34.2834C31.3056 34.5389 31.6223 34.6667 32 34.6667ZM20.2565 19.6667V17.6667H27.8205V19.6667H20.2565ZM20.2565 23.6667V21.6667H27.8205V23.6667H20.2565ZM30.5898 19.8462C30.2633 19.8462 29.9851 19.7312 29.7552 19.5013C29.5253 19.2714 29.4103 18.9932 29.4103 18.6667C29.4103 18.3402 29.5253 18.062 29.7552 17.8321C29.9851 17.6022 30.2633 17.4872 30.5898 17.4872C30.9163 17.4872 31.1945 17.6022 31.4244 17.8321C31.6543 18.062 31.7692 18.3402 31.7692 18.6667C31.7692 18.9932 31.6543 19.2714 31.4244 19.5013C31.1945 19.7312 30.9163 19.8462 30.5898 19.8462ZM30.5898 23.8462C30.2633 23.8462 29.9851 23.7312 29.7552 23.5013C29.5253 23.2714 29.4103 22.9932 29.4103 22.6667C29.4103 22.3402 29.5253 22.062 29.7552 21.8321C29.9851 21.6022 30.2633 21.4872 30.5898 21.4872C30.9163 21.4872 31.1945 21.6022 31.4244 21.8321C31.6543 22.062 31.7692 22.3402 31.7692 22.6667C31.7692 22.9932 31.6543 23.2714 31.4244 23.5013C31.1945 23.7312 30.9163 23.8462 30.5898 23.8462ZM16 34.6667H28.6667V32H14.6667V33.3334C14.6667 33.7112 14.7945 34.0278 15.05 34.2834C15.3056 34.5389 15.6223 34.6667 16 34.6667Z" fill="#8EF69D"/>
</svg>
