<svg width="48" height="48" viewBox="0 0 48 48" fill="none" xmlns="http://www.w3.org/2000/svg">
<circle cx="24" cy="24" r="24" fill="#0029F7"/>
<path d="M16 36.6666C15.0684 36.6666 14.2799 36.344 13.6346 35.6987C12.9893 35.0534 12.6667 34.267 12.6667 33.3394V30H16.6667V11.5898L18.5129 13.1795L20.3846 11.5898L22.2564 13.1795L24.1282 11.5898L26 13.1795L27.8718 11.5898L29.7436 13.1795L31.6154 11.5898L33.4871 13.1795L35.3333 11.5898V33.3333C35.3333 34.2649 35.0107 35.0534 34.3654 35.6987C33.7201 36.344 32.9316 36.6666 32 36.6666H16ZM32 34.6667C32.3778 34.6667 32.6944 34.5389 32.95 34.2833C33.2056 34.0278 33.3333 33.7111 33.3333 33.3333V14.6667H18.6667V30H30.6667V33.3333C30.6667 33.7111 30.7944 34.0278 31.05 34.2833C31.3056 34.5389 31.6222 34.6667 32 34.6667ZM20.2564 19.6666V17.6667H27.8205V19.6666H20.2564ZM20.2564 23.6666V21.6667H27.8205V23.6666H20.2564ZM30.5897 19.8461C30.2632 19.8461 29.985 19.7312 29.7551 19.5013C29.5252 19.2714 29.4103 18.9932 29.4103 18.6667C29.4103 18.3402 29.5252 18.062 29.7551 17.8321C29.985 17.6022 30.2632 17.4872 30.5897 17.4872C30.9162 17.4872 31.1944 17.6022 31.4243 17.8321C31.6542 18.062 31.7692 18.3402 31.7692 18.6667C31.7692 18.9932 31.6542 19.2714 31.4243 19.5013C31.1944 19.7312 30.9162 19.8461 30.5897 19.8461ZM30.5897 23.8461C30.2632 23.8461 29.985 23.7312 29.7551 23.5013C29.5252 23.2714 29.4103 22.9932 29.4103 22.6667C29.4103 22.3402 29.5252 22.062 29.7551 21.8321C29.985 21.6022 30.2632 21.4872 30.5897 21.4872C30.9162 21.4872 31.1944 21.6022 31.4243 21.8321C31.6542 22.062 31.7692 22.3402 31.7692 22.6667C31.7692 22.9932 31.6542 23.2714 31.4243 23.5013C31.1944 23.7312 30.9162 23.8461 30.5897 23.8461ZM16 34.6667H28.6667V32H14.6667V33.3333C14.6667 33.7111 14.7944 34.0278 15.05 34.2833C15.3056 34.5389 15.6222 34.6667 16 34.6667Z" fill="#8EF69D"/>
</svg>
